<mxfile host="app.diagrams.net" modified="2023-10-10T06:56:51.367Z" agent="Mozilla/5.0 (Windows NT 10.0; Win64; x64) AppleWebKit/537.36 (KHTML, like Gecko) Chrome/117.0.0.0 Safari/537.36" etag="9SLZUpjivTgArzaPTxN5" version="22.0.4" type="github">
  <diagram name="페이지-1" id="-XCO6jug9OUOYmdGI3XG">
    <mxGraphModel dx="1434" dy="790" grid="1" gridSize="10" guides="1" tooltips="1" connect="1" arrows="1" fold="1" page="1" pageScale="1" pageWidth="827" pageHeight="1169" math="0" shadow="0">
      <root>
        <mxCell id="0" />
        <mxCell id="1" parent="0" />
        <mxCell id="EhC4UjoJ4Kq8SPj1T1UP-1" value="고객&lt;br&gt;" style="shape=umlActor;verticalLabelPosition=bottom;verticalAlign=top;html=1;outlineConnect=0;" vertex="1" parent="1">
          <mxGeometry x="60" y="320" width="30" height="60" as="geometry" />
        </mxCell>
        <mxCell id="EhC4UjoJ4Kq8SPj1T1UP-2" value="로그인" style="ellipse;whiteSpace=wrap;html=1;" vertex="1" parent="1">
          <mxGeometry x="180" y="170" width="130" height="80" as="geometry" />
        </mxCell>
        <mxCell id="EhC4UjoJ4Kq8SPj1T1UP-4" value="" style="endArrow=classic;html=1;rounded=0;entryX=0.085;entryY=0.838;entryDx=0;entryDy=0;entryPerimeter=0;" edge="1" parent="1" source="EhC4UjoJ4Kq8SPj1T1UP-1" target="EhC4UjoJ4Kq8SPj1T1UP-2">
          <mxGeometry width="50" height="50" relative="1" as="geometry">
            <mxPoint x="180" y="340" as="sourcePoint" />
            <mxPoint x="230" y="290" as="targetPoint" />
          </mxGeometry>
        </mxCell>
        <mxCell id="EhC4UjoJ4Kq8SPj1T1UP-5" value="노래메뉴" style="ellipse;whiteSpace=wrap;html=1;" vertex="1" parent="1">
          <mxGeometry x="230" y="300" width="120" height="80" as="geometry" />
        </mxCell>
        <mxCell id="EhC4UjoJ4Kq8SPj1T1UP-6" value="" style="endArrow=classic;html=1;rounded=0;" edge="1" parent="1">
          <mxGeometry width="50" height="50" relative="1" as="geometry">
            <mxPoint x="100" y="350" as="sourcePoint" />
            <mxPoint x="190" y="340" as="targetPoint" />
            <Array as="points" />
          </mxGeometry>
        </mxCell>
        <mxCell id="EhC4UjoJ4Kq8SPj1T1UP-12" value="노래추가" style="ellipse;whiteSpace=wrap;html=1;" vertex="1" parent="1">
          <mxGeometry x="130" y="450" width="60" height="50" as="geometry" />
        </mxCell>
        <mxCell id="EhC4UjoJ4Kq8SPj1T1UP-14" value="노래검색" style="ellipse;whiteSpace=wrap;html=1;" vertex="1" parent="1">
          <mxGeometry x="270" y="450" width="60" height="50" as="geometry" />
        </mxCell>
        <mxCell id="EhC4UjoJ4Kq8SPj1T1UP-15" value="노래삭제" style="ellipse;whiteSpace=wrap;html=1;" vertex="1" parent="1">
          <mxGeometry x="400" y="450" width="60" height="50" as="geometry" />
        </mxCell>
        <mxCell id="EhC4UjoJ4Kq8SPj1T1UP-19" value="노래선택" style="ellipse;whiteSpace=wrap;html=1;" vertex="1" parent="1">
          <mxGeometry x="480" y="180" width="120" height="80" as="geometry" />
        </mxCell>
        <mxCell id="EhC4UjoJ4Kq8SPj1T1UP-20" value="" style="endArrow=classic;html=1;rounded=0;" edge="1" parent="1">
          <mxGeometry width="50" height="50" relative="1" as="geometry">
            <mxPoint x="360" y="310" as="sourcePoint" />
            <mxPoint x="470" y="250" as="targetPoint" />
          </mxGeometry>
        </mxCell>
        <mxCell id="EhC4UjoJ4Kq8SPj1T1UP-21" value="플레이리스트" style="ellipse;whiteSpace=wrap;html=1;" vertex="1" parent="1">
          <mxGeometry x="660" y="310" width="120" height="80" as="geometry" />
        </mxCell>
        <mxCell id="EhC4UjoJ4Kq8SPj1T1UP-23" value="" style="endArrow=classic;html=1;rounded=0;" edge="1" parent="1">
          <mxGeometry width="50" height="50" relative="1" as="geometry">
            <mxPoint x="620" y="250" as="sourcePoint" />
            <mxPoint x="680" y="290" as="targetPoint" />
          </mxGeometry>
        </mxCell>
        <mxCell id="EhC4UjoJ4Kq8SPj1T1UP-29" value="" style="strokeWidth=2;html=1;shape=mxgraph.flowchart.annotation_2;align=left;labelPosition=right;pointerEvents=1;direction=south;" vertex="1" parent="1">
          <mxGeometry x="150" y="390" width="280" height="50" as="geometry" />
        </mxCell>
        <mxCell id="EhC4UjoJ4Kq8SPj1T1UP-33" value="" style="endArrow=classic;html=1;rounded=0;" edge="1" parent="1" target="EhC4UjoJ4Kq8SPj1T1UP-29">
          <mxGeometry width="50" height="50" relative="1" as="geometry">
            <mxPoint x="290" y="440" as="sourcePoint" />
            <mxPoint x="350" y="400" as="targetPoint" />
            <Array as="points" />
          </mxGeometry>
        </mxCell>
      </root>
    </mxGraphModel>
  </diagram>
</mxfile>
